<svg width="24" height="25" viewBox="0 0 24 25" fill="none" xmlns="http://www.w3.org/2000/svg">
<path fill-rule="evenodd" clip-rule="evenodd" d="M19 11.3623H13V5.3623C13 4.8103 12.552 4.3623 12 4.3623C11.448 4.3623 11 4.8103 11 5.3623V11.3623H5C4.448 11.3623 4 11.8103 4 12.3623C4 12.9143 4.448 13.3623 5 13.3623H11V19.3623C11 19.9153 11.448 20.3623 12 20.3623C12.552 20.3623 13 19.9153 13 19.3623V13.3623H19C19.553 13.3623 20 12.9143 20 12.3623C20 11.8103 19.553 11.3623 19 11.3623Z" fill="#313037"/>
</svg>
